<?xml version="1.0" encoding="UTF-8" standalone="no"?>
<!-- Created with Inkscape (http://www.inkscape.org/) -->

<svg
   width="50mm"
   height="25mm"
   viewBox="0 0 80 25"
   version="1.1"
   id="svg5"
   xmlns="http://www.w3.org/2000/svg">
  <sodipodiNamedview
     id="namedview7"
     pagecolor="#ffffff"
     bordercolor="#666666"
     borderopacity="1.0"
     showgrid="false"
     width="500mm" />
  <defs
     id="defs2" />
  <g
     id="layer1">
    <path
       style="fill:#fff;stroke-width:0.264583"
       d="m 16.490233,21.715466 5.252538,-3.00782 0.07823,-1.75468 c 0.04303,-0.96508 3.81e-4,-1.75468 -0.09477,-1.75468 -0.09515,0 -1.559107,0.79916 -3.253234,1.77591 -1.694128,0.97675 -3.970315,2.28644 -5.058197,2.91042 -1.087883,0.62397 -2.198446,1.1345 -2.467918,1.1345 -0.269472,0 -1.7606365,-0.73553 -3.3136985,-1.63452 -4.230081,-2.44857 -4.321535,-2.52341 -4.227454,-3.45969 0.07474,-0.74381 0.466654,-1.02793 5.236181,-3.79607 2.8354675,-1.64564 5.1920975,-3.1021905 5.2369565,-3.2367705 0.09916,-0.29748 -2.115434,-1.63128 -2.708516,-1.63128 -0.446557,0 -1.7617115,0.71677 -7.4853965,4.0796505 l -3.50572903,2.05974 0.0041,2.5527 c 0.0022,1.40398 0.09152,2.6807 0.198437,2.83715 0.25159503,0.36816 10.14684953,5.93326 10.54988753,5.93326 0.168351,0 2.669734,-1.35352 5.558629,-3.00782 z m 16.434996,-2.95131 c 3.263457,-0.96914 4.474017,-5.1807 2.249137,-7.82483 -2.560047,-3.0424305 -7.737048,-1.9706205 -8.789743,1.81978 -0.341315,1.22895 -0.340844,1.5344 0.0043,2.77714 0.406382,1.46337 1.674794,2.77045 3.120337,3.21546 1.594075,0.49074 1.802865,0.4915 3.415999,0.0125 z m -3.347953,-2.3912 c -0.957791,-0.80593 -1.267319,-2.07747 -0.829008,-3.40557 0.399553,-1.21065 1.170786,-1.73785 2.542297,-1.73785 2.599974,0 3.703411,3.43048 1.657254,5.15222 -1.05346,0.88643 -2.310527,0.88315 -3.370543,-0.009 z m 28.47774,2.08436 c 2.87117,-1.36246 3.46434,-5.71808 1.08168,-7.94276 -2.73732,-2.5558205 -7.42067,-1.3198505 -8.40297,2.2176 -0.34914,1.25736 -0.34948,1.55703 -0.003,2.80409 0.82176,2.95917 4.31139,4.35087 7.32446,2.92107 z m -4.13607,-2.08436 c -1.35311,-1.13856 -1.42903,-3.23858 -0.16286,-4.50475 0.91716,-0.91716 2.71403,-0.89646 3.65257,0.0421 1.29497,1.29497 1.24081,3.32712 -0.11918,4.47147 -1.05346,0.88643 -2.31052,0.88315 -3.37053,-0.009 z m 16.52865,2.09421 c 0.97625,-0.63967 1.16913,-1.53022 1.16913,-5.398 V 9.3774455 h -1.18336 -1.18336 l -0.0734,3.7703205 c -0.0695,3.56945 -0.1016,3.77031 -0.60257,3.77031 -0.48823,0 -0.54049,-0.22515 -0.67546,-2.91042 -0.16277,-3.23805 -0.41342,-3.86691 -1.80436,-4.52695 -1.25387,-0.5950105 -2.62439,-0.3295805 -3.53946,0.68548 -0.72546,0.80474 -0.7276,0.81875 -0.7276,4.77169 v 3.96457 h 1.05107 1.05107 l 0.0734,-3.77031 0.0734,-3.77031 h 0.66146 c 0.65745,0 0.66226,0.0176 0.79375,2.91042 0.13981,3.07577 0.37196,3.80361 1.36857,4.2906 1.35732,0.66325 2.43374,0.63422 3.54771,-0.0957 z m -20.79128,-0.49076 v -0.92604 h -2.38125 c -1.30969,0 -2.38125,-0.10173 -2.38125,-0.22606 0,-0.12434 0.8602,-0.98754 1.91155,-1.91823 2.82162,-2.49778 2.85095,-2.53405 2.85095,-3.52505 0,-0.66453 -0.18627,-1.05336 -0.69714,-1.45521 -0.60812,-0.4783505 -1.06422,-0.5483705 -3.57188,-0.5483705 h -2.87473 v 0.9260505 0.92604 h 2.24896 c 1.23692,0 2.24895,0.0958 2.24895,0.21281 0,0.11704 -0.94207,1.03978 -2.0935,2.05052 -2.34022,2.05429 -2.85025,2.87963 -2.47619,4.00708 0.37512,1.13067 1.19894,1.39425 4.37126,1.3986 l 2.84427,0.004 z m 30.1625,0 v -0.92604 l -1.65365,-0.004 c -2.13487,-0.005 -2.78691,-0.19259 -3.00022,-0.86469 -0.26618,-0.83867 0.53968,-1.24837 2.45548,-1.24837 h 1.66922 v -0.91445 -0.91445 l -1.89051,-0.0777 c -1.41744,-0.0583 -1.95981,-0.18805 -2.16747,-0.51858 -0.5543,-0.8823 0.22194,-1.27895 2.50288,-1.27895 h 2.08427 v -0.92604 -0.9260505 h -2.66619 c -2.59406,0 -2.68711,0.0209 -3.43958,0.7734005 -0.86024,0.86024 -1.06231,2.43452 -0.42445,3.30685 0.29478,0.40313 0.27061,0.63554 -0.15566,1.49713 -0.43305,0.87527 -0.45991,1.15538 -0.18938,1.97508 0.50119,1.51863 1.51575,1.97038 4.42786,1.97155 l 2.4474,9.9e-4 z m -67.26152,-1.0563 c 0.686386,-0.36268 3.033912,-1.7078 5.216725,-2.98915 l 3.96875,-2.32974 0.07605,-2.5941905 c 0.0501,-1.70882 -0.03048,-2.72255 -0.236085,-2.97029 -0.297278,-0.3582 -8.306141,-4.98272 -9.821047,-5.67092996 -0.677832,-0.30793 -1.031638,-0.14937 -5.9531255,2.66797996 -2.877855,1.64745 -5.31993803,3.12366 -5.42685003,3.28045 -0.106912,0.1568 -0.196209,0.98244 -0.198437,1.83475 -0.0036,1.3678805 0.05026,1.5288605 0.45896903,1.3723305 0.254661,-0.0975 2.621665,-1.4199505 5.260007,-2.9387205 2.638343,-1.51877 4.9900245,-2.7614 5.2259595,-2.7614 0.669634,0 7.064696,3.7677 7.492101,4.41403 0.277312,0.41936 0.308454,0.71488 0.113686,1.07881 -0.14754,0.2756805 -2.596785,1.8602205 -5.442764,3.5212005 -2.845981,1.66098 -5.1745105,3.09819 -5.1745105,3.1938 0,0.28054 2.2052615,1.52889 2.7207755,1.54017 0.259499,0.006 1.033405,-0.28641 1.719792,-0.6491 z m 28.84755,-1.52339 -0.0829,-0.85989 -1.91823,-0.0777 -1.91823,-0.0777 v 0.93764 0.93763 h 2.00114 2.00114 z"
       id="path140"
       />
  </g>
</svg>
