<?xml version="1.0" ?><svg id="svg3171" version="1.1" viewBox="0 0 6 6" xmlns="http://www.w3.org/2000/svg" ><defs id="defs3165"/><g id="layer1"><path fill="#E96C9F" d="m 1.0581785,0.52916652 c -0.28849698,0 -0.52901098,0.240633 -0.52901198,0.52926898 v 0.527203 c 1e-6,0.288637 0.240515,0.529271 0.52901198,0.529271 v 1.059057 a 0.2645324,0.26466165 0 0 0 0.2655391,0.2656691 h 0.793001 v 0.2636009 c 0,0.288639 0.240514,0.5292691 0.529011,0.5292691 h 0.263473 v 0.5297879 h -0.792484 c 0,-0.2886361 -0.241031,-0.5297879 -0.5295291,-0.5297879 h -0.529011 c -0.28849698,0 -0.52901098,0.2411518 -0.52901198,0.5297879 v 0.5292691 c 1e-6,0.2886368 0.240514,0.5292709 0.52901198,0.5292709 h 0.529011 c 0.2884991,0 0.5295291,-0.2406341 0.5295291,-0.5292709 h 1.058023 A 0.2645324,0.26466165 0 0 0 3.4382135,5.0279624 V 4.2325056 h 0.2660559 c 0.2884962,0 0.5290111,-0.2406322 0.5290111,-0.5292691 V 3.4396356 h 0.5290119 v 0.79287 c -0.2884969,0 -0.5290119,0.24115 -0.5290119,0.5297879 v 0.5292691 c 0,0.2886397 0.240514,0.5292709 0.5290119,0.5292709 h 0.5290111 c 0.2884991,0 0.52953,-0.2406312 0.52953,-0.5292709 V 4.7622935 c 0,-0.2886379 -0.2410309,-0.5297879 -0.52953,-0.5297879 V 3.1739665 A 0.2645324,0.26466165 0 0 0 5.0257656,2.9103645 H 4.2332805 v -0.265669 c 0,-0.288638 -0.2405131,-0.529786 -0.5290111,-0.529786 H 3.4382135 v -0.529271 h 0.795067 c 0,0.288639 0.240515,0.529271 0.5290119,0.529271 h 0.5290111 c 0.2884991,0 0.52953,-0.240632 0.52953,-0.529271 v -0.527203 c 0,-0.28863698 -0.2410309,-0.52926898 -0.52953,-0.52926898 H 4.7622924 c -0.2884969,0 -0.5290119,0.240632 -0.5290119,0.52926898 H 3.1747416 a 0.2645324,0.26466165 0 0 0 -0.265539,0.263602 v 0.792872 h -0.263473 c -0.288498,0 -0.529011,0.241147 -0.529011,0.529786 v 0.265669 H 1.5871895 v -0.795455 c 0.2884981,0 0.5295291,-0.240634 0.5295291,-0.529271 v -0.527203 c 0,-0.28863598 -0.241031,-0.52926898 -0.5295291,-0.52926898 z" id="path2207-8" style="color:#000000;font-style:normal;font-variant:normal;font-weight:normal;font-stretch:normal;font-size:medium;line-height:normal;font-family:sans-serif;font-variant-ligatures:normal;font-variant-position:normal;font-variant-caps:normal;font-variant-numeric:normal;font-variant-alternates:normal;font-variant-east-asian:normal;font-feature-settings:normal;font-variation-settings:normal;text-indent:0;text-align:start;text-decoration:none;text-decoration-line:none;text-decoration-style:solid;letter-spacing:normal;word-spacing:normal;text-transform:none;writing-mode:lr-tb;direction:ltr;text-orientation:mixed;dominant-baseline:auto;baseline-shift:baseline;text-anchor:start;white-space:normal;shape-padding:0;shape-margin:0;inline-size:0;clip-rule:nonzero;display:inline;overflow:visible;visibility:visible;opacity:1;isolation:auto;mix-blend-mode:normal;color-interpolation:sRGB;color-interpolation-filters:linearRGB;solid-opacity:1;vector-effect:none;fill-opacity:1;fill-rule:nonzero;stroke:none;stroke-width:0.52914;stroke-linecap:round;stroke-linejoin:round;stroke-miterlimit:4;stroke-dasharray:none;stroke-dashoffset:0;stroke-opacity:1;color-rendering:auto;image-rendering:auto;shape-rendering:auto;text-rendering:auto;enable-background:accumulate;stop-color:#000000;stop-opacity:1"/></g></svg>