<?xml version="1.0" encoding="UTF-8" standalone="no"?>
<!-- Created with Inkscape (http://www.inkscape.org/) -->

<svg
   version="1.1"
   id="svg1"
   width="187.28961"
   height="210.73682"
   viewBox="0 0 187.28961 210.73681"
   xmlns="http://www.w3.org/2000/svg"
   xmlns:svg="http://www.w3.org/2000/svg">
  <defs
     id="defs1" />
  <g
     id="g1"
     transform="translate(-222.30737,-38.358044)">
    <path
       style="fill:#000000"
       d="m 308.93031,247.7261 c -1.28333,-0.7131 -3.38333,-1.79635 -4.66666,-2.40722 -1.28334,-0.61088 -2.48334,-1.30484 -2.66667,-1.54214 -0.18333,-0.2373 -1.53333,-1.02858 -3,-1.75841 -1.46667,-0.72982 -2.81667,-1.50045 -3,-1.7125 -0.18333,-0.21206 -1.38333,-0.93437 -2.66667,-1.60514 -4.07012,-2.12736 -8.22871,-4.39825 -11.66666,-6.37084 -1.83334,-1.05191 -4.38333,-2.40961 -5.66667,-3.01711 -1.28333,-0.6075 -2.49514,-1.36129 -2.6929,-1.67508 -0.19777,-0.31379 -2.44777,-1.6715 -5,-3.01713 -2.55224,-1.34562 -5.43674,-3.00517 -6.41001,-3.68787 -0.97327,-0.6827 -2.08323,-1.24128 -2.46658,-1.24128 -0.38335,0 -2.03054,-0.9 -3.66043,-2 -1.6299,-1.1 -3.26993,-2 -3.64454,-2 -0.3746,0 -0.78109,-0.225 -0.90331,-0.5 -0.12223,-0.275 -1.27223,-1.04272 -2.55556,-1.70606 -1.28333,-0.66333 -3.83333,-2.06231 -5.66667,-3.10884 -4.15547,-2.3721 -9.32541,-5.16011 -12.16666,-6.56116 -1.19167,-0.58762 -2.16667,-1.3059 -2.16667,-1.59617 0,-0.29027 -0.39387,-0.52777 -0.87527,-0.52777 -0.4814,0 -1.7564,-0.91985 -2.83334,-2.04411 l -1.95806,-2.04412 v -21.78922 -21.78922 l 2,-2.01741 c 2.21925,-2.23858 8.36843,-6.31592 9.52524,-6.31592 0.40801,0 0.98175,-0.38132 1.27497,-0.84737 0.29322,-0.46606 1.28313,-1.23351 2.19979,-1.70545 3.30718,-1.70267 9.43041,-5.17825 14.8282,-8.41656 3.02782,-1.81649 6.40514,-3.79548 7.50514,-4.39775 4.65901,-2.55091 13.35911,-7.60406 13.66666,-7.93781 0.18334,-0.19895 1.08334,-0.79088 2,-1.3154 3.66135,-2.09504 9.81192,-5.63662 12.33333,-7.1017 1.46667,-0.85222 3.71667,-2.08839 5,-2.74706 1.28334,-0.65866 2.48334,-1.35044 2.66667,-1.53728 0.18333,-0.18685 1.53333,-0.93685 3,-1.66667 1.46667,-0.72981 2.81667,-1.51746 3,-1.75031 0.94062,-1.1947 13.47907,-7.243307 15.01499,-7.243307 1.97802,0 5.27429,1.390517 9.31834,3.930877 2.66565,1.67449 5.56836,3.30678 9.33334,5.24844 3.68911,1.90254 5.66666,3.56906 5.66666,4.77541 0,1.52095 -3.94151,4.24361 -11.10558,7.67135 -1.15807,0.55409 -2.20807,1.2399 -2.33334,1.52401 -0.12526,0.28412 -1.27774,1.08825 -2.56108,1.78696 -1.28333,0.69871 -3.68333,2.00259 -5.33333,2.89751 -1.65,0.89492 -3.3,1.86628 -3.66667,2.15857 -0.62057,0.49471 -2.52358,1.59387 -8.33333,4.81323 -1.28333,0.71114 -3.68333,2.16749 -5.33333,3.23634 -1.65,1.06885 -4.2,2.5648 -5.66667,3.32434 -1.46667,0.75954 -3.56667,1.90236 -4.66667,2.53961 -2.77241,1.60611 -9.29654,5.46502 -12.22621,7.2316 -1.34225,0.80937 -3.64045,2.10267 -5.10712,2.87401 -5.19795,2.73365 -7.22089,3.93252 -7.60807,4.50882 -0.21556,0.32085 -1.29193,1.05075 -2.39193,1.62199 -10.22604,5.31052 -12.70785,7.19673 -14.96972,11.37721 -1.69026,3.12401 -1.71236,4.90094 -0.10684,8.59112 1.44411,3.31917 3.90694,5.83987 7.84113,8.02537 1.51471,0.84145 5.41233,3.00412 8.66139,4.80594 3.24906,1.80182 6.05738,3.47533 6.24071,3.71889 0.18333,0.24357 1.23333,0.91108 2.33333,1.48335 3.37614,1.75644 6.49401,3.49549 10.56496,5.89277 2.14407,1.26259 4.99407,2.91962 6.33334,3.68229 1.33927,0.76267 3.48503,2.00039 4.76837,2.75048 1.28333,0.75009 4.58333,2.64191 7.33333,4.20406 2.75,1.56214 5.79631,3.39942 6.76958,4.08285 2.55583,1.79471 6.40603,1.57175 10.63647,-0.61593 3.98866,-2.06264 7.85633,-4.3757 9.02571,-5.39781 0.42081,-0.36781 1.77081,-1.14893 3,-1.73582 1.2292,-0.58689 3.73491,-1.94042 5.56824,-3.00784 1.83333,-1.06741 4.28782,-2.39954 5.45441,-2.96027 1.1666,-0.56074 2.30434,-1.31604 2.52832,-1.67845 0.22398,-0.36241 1.5195,-1.17633 2.87892,-1.8087 1.35943,-0.63237 2.62168,-1.3389 2.80502,-1.57006 0.18333,-0.23116 1.23333,-0.88852 2.33333,-1.4608 3.99861,-2.08028 6.72092,-3.61666 9.33333,-5.26742 1.46667,-0.92677 3.11667,-1.89411 3.66667,-2.14965 0.55,-0.25554 2.2,-1.18776 3.66667,-2.07161 1.46667,-0.88385 3.71667,-2.18507 5,-2.89159 5.2876,-2.91104 9.01971,-5.08442 9.33333,-5.43524 0.18334,-0.20508 0.93334,-0.69986 1.66667,-1.09952 3.60666,-1.96558 8.49243,-4.71538 13.14577,-7.39869 3.4799,-2.00665 5.74606,-2.89831 7.00001,-2.75429 l 1.85423,0.21296 0.18256,11.95991 c 0.14927,9.7782 -0.009,12.36349 -0.8673,14.17235 -1.31846,2.77842 -3.36308,4.75869 -6.1486,5.95506 -1.19167,0.51182 -2.16667,1.17853 -2.16667,1.48159 0,0.30306 -1.21468,0.95189 -2.69928,1.44185 -1.4846,0.48997 -2.9096,1.21299 -3.16667,1.60671 -0.25706,0.39373 -1.51738,1.25859 -2.80072,1.92192 -1.28333,0.66334 -3.83333,2.07501 -5.66666,3.13705 -1.83334,1.06204 -4.30834,2.39834 -5.5,2.96955 -1.19167,0.57122 -2.16667,1.33455 -2.16667,1.69629 0,0.36175 -0.40391,0.65772 -0.89758,0.65772 -1.04926,0 -3.5771,1.31027 -7.76909,4.02699 -1.65,1.06932 -4.5,2.69687 -6.33333,3.61678 -1.83334,0.9199 -4.83334,2.58378 -6.66667,3.6975 -1.83333,1.11372 -4.15833,2.38332 -5.16667,2.82133 -1.00833,0.43801 -1.83333,1.02659 -1.83333,1.30795 0,0.28136 -0.975,0.97377 -2.16667,1.5387 -1.19166,0.56493 -3.96666,2.06273 -6.16666,3.32844 -2.2,1.26572 -4.75,2.67643 -5.66667,3.13491 -0.91667,0.45848 -1.81667,0.99257 -2,1.18688 -0.18333,0.19431 -1.53333,0.95041 -3,1.68024 -1.46667,0.72982 -2.90657,1.70195 -3.19979,2.16028 -0.29322,0.45834 -0.9578,0.83334 -1.47685,0.83334 -0.51905,0 -2.36287,0.9 -4.09739,2 -3.89871,2.47248 -9.18747,2.7602 -12.89264,0.70138 z m 1.33334,-60.22806 c -0.91667,-0.42337 -1.81667,-0.9451 -2,-1.1594 -0.18334,-0.21429 -1.38334,-0.7939 -2.66667,-1.28802 -1.28333,-0.49412 -2.63333,-1.2519 -3,-1.68395 -0.65735,-0.77458 -2.42321,-1.81274 -7,-4.11535 -3.50626,-1.76403 -4.66667,-2.93204 -4.66667,-4.69728 0,-1.19541 0.58715,-1.84269 2.33334,-2.57229 1.28333,-0.53621 2.33333,-1.22289 2.33333,-1.52594 0,-0.30306 1.21468,-0.9519 2.69928,-1.44186 1.4846,-0.48996 2.9096,-1.25569 3.16667,-1.70162 0.25706,-0.44593 1.51738,-1.30916 2.80072,-1.91829 3.20123,-1.51945 6.22998,-3.2365 9.34423,-5.29741 1.44495,-0.95622 2.93361,-1.73858 3.30814,-1.73858 0.37453,0 0.68208,-0.225 0.68346,-0.5 10e-4,-0.275 1.35137,-1.05472 3,-1.73271 1.64862,-0.67798 2.9975,-1.46659 2.9975,-1.75245 0,-0.28586 0.975,-0.90555 2.16667,-1.37709 1.19166,-0.47154 2.61666,-1.22811 3.16666,-1.68126 0.55,-0.45315 2.5,-1.65349 4.33334,-2.66743 1.83333,-1.01394 4.13125,-2.31877 5.10648,-2.89963 5.35151,-3.1874 9.79,-5.7719 11.56018,-6.73138 3.29769,-1.78743 6.74377,-3.81198 9.78986,-5.75149 4.08301,-2.59973 7.84439,-4.73721 10.50112,-5.96746 1.26003,-0.58348 3.23835,-1.78348 4.39626,-2.66666 1.15791,-0.88318 2.31208,-1.60578 2.56483,-1.60578 1.13647,0 4.41102,-4.21264 5.04272,-6.48736 0.92683,-3.33742 0.88926,-4.25729 -0.31923,-7.81682 -1.17677,-3.46606 -2.98143,-5.4694 -6.63233,-7.36248 -3.30985,-1.716223 -7.31306,-3.978547 -10.67656,-6.033597 -1.46667,-0.89611 -3.91783,-2.23364 -5.44703,-2.97229 -1.5292,-0.73864 -2.8792,-1.56449 -3,-1.83522 -0.1208,-0.27073 -1.26964,-1.03496 -2.55297,-1.69829 -1.28333,-0.66333 -3.83333,-2.07501 -5.66667,-3.13705 -1.83333,-1.06204 -4.28084,-2.38686 -5.43892,-2.94403 -1.15807,-0.55718 -2.20807,-1.24551 -2.33333,-1.52962 -0.12526,-0.28412 -1.27775,-1.04822 -2.56108,-1.69801 -1.28333,-0.64978 -3.83333,-2.05865 -5.66667,-3.13083 -1.83333,-1.07217 -4.34879,-2.43646 -5.5899,-3.03175 -1.24112,-0.59529 -3.13449,-1.73141 -4.20749,-2.52472 -2.96356,-2.19106 -8.68491,-2.0093 -12.1907,0.38726 -1.46011,0.99815 -2.86518,1.81481 -3.12237,1.81481 -0.57345,0 -7.42114,4.14992 -7.9031,4.78954 -0.1908,0.25321 -1.0908,0.78156 -2.00001,1.17412 -0.9092,0.39255 -3.15309,1.60884 -4.98643,2.70286 -1.83333,1.09401 -4.56677,2.6666 -6.07432,3.49463 -4.38706,2.40964 -9.0758,5.09226 -11.59234,6.63246 -1.28333,0.78543 -3.53333,2.08902 -5,2.89686 -1.46667,0.80783 -5.36667,3.04647 -8.66667,4.974744 -3.3,1.928273 -7.05,4.118293 -8.33333,4.866713 -1.28333,0.74842 -5.03333,2.86681 -8.33333,4.70753 -3.3,1.84072 -6.15,3.52098 -6.33334,3.73389 -0.18333,0.21292 -1.08333,0.75077 -2,1.19522 -0.91666,0.44446 -3.46666,1.87399 -5.66666,3.17675 -5.43889,3.2207 -5.54129,3.25533 -6.72373,2.27399 -0.89161,-0.73997 -1.00936,-2.72545 -0.82485,-13.90791 l 0.21524,-13.044737 1.94354,-2.16666 c 1.06894,-1.19167 2.32903,-2.16667 2.8002,-2.16667 0.47117,0 1.09658,-0.39262 1.3898,-0.87248 0.29322,-0.47987 1.58313,-1.27928 2.86646,-1.77647 1.28334,-0.49718 2.82251,-1.31864 3.42039,-1.82546 0.59788,-0.50681 2.24788,-1.54239 3.66667,-2.30128 3.81747,-2.04191 6.92042,-3.7886 9.91294,-5.58011 3.30431,-1.97817 7.36566,-4.28651 13,-7.38879 2.38334,-1.31227 5.38727,-3.0638 6.67542,-3.8923 1.28814,-0.82849 3.01314,-1.71934 3.83333,-1.97966 0.82019,-0.26031 1.49125,-0.76051 1.49125,-1.11154 0,-0.35104 0.7785,-0.93423 1.72999,-1.29598 0.95149,-0.36176 3.87648,-1.92061 6.49999,-3.46412 6.33557,-3.72745 8.32139,-4.85411 11.10335,-6.2995 1.28334,-0.66677 2.48334,-1.36231 2.66667,-1.54564 0.18333,-0.18334 0.94353,-0.67041 1.68933,-1.08239 0.74579,-0.41197 4.85759,-2.73697 9.13733,-5.16666 6.39825,-3.63241 8.3128,-4.41762 10.77133,-4.41762 1.64449,0 3.14325,0.24798 3.33057,0.55107 0.18732,0.3031 2.83003,1.83961 5.87268,3.41447 3.04265,1.57486 6.00572,3.27688 6.58459,3.78226 0.57887,0.50537 1.45055,0.91887 1.93707,0.91887 0.48652,0 1.83196,0.7226 2.98987,1.60578 1.15791,0.88318 3.13622,2.07276 4.39626,2.64352 1.26003,0.57076 3.49097,1.77771 4.95764,2.68211 2.5391,1.56571 4.13175,2.4574 11,6.15874 1.65,0.88919 4.2,2.34813 5.66666,3.24208 1.46667,0.89395 4.16667,2.37991 6,3.30212 1.83334,0.92222 4.53334,2.41257 6.00001,3.31189 1.46666,0.89933 3.71666,2.21381 5,2.92109 5.3568,2.95224 7.70423,4.30435 8.33333,4.79993 0.36667,0.28885 2.76667,1.6435 5.33333,3.01032 2.56667,1.36683 5.14029,2.89853 5.71916,3.40378 0.57887,0.50525 1.39344,0.91864 1.81014,0.91864 1.22458,0 5.33296,3.91963 6.44513,6.14902 0.85417,1.71222 1.02558,5.38146 1.02558,21.953407 0,11.38224 -0.25739,19.89757 -0.60145,19.89757 -0.33079,0 -0.91657,0.90396 -1.30172,2.00879 -0.38515,1.10484 -1.2395,2.20796 -1.89856,2.45138 -0.65905,0.24342 -1.37465,0.70348 -1.59021,1.02235 -0.38289,0.56641 -2.57054,1.86106 -7.27473,4.30517 -1.28334,0.66677 -2.48334,1.37672 -2.66667,1.57765 -0.30909,0.33878 -4.5535,2.88324 -8.81005,5.2815 -0.99553,0.5609 -3.54553,2.03134 -5.66667,3.26764 -2.12114,1.23629 -4.75661,2.71279 -5.85661,3.28111 -1.1,0.56831 -2.15001,1.2068 -2.33334,1.41886 -0.34604,0.40025 -1.24451,0.94015 -7.24204,4.35175 -1.96645,1.11859 -4.96645,2.8382 -6.66666,3.82135 -1.70022,0.98315 -4.1413,2.33315 -5.42463,3 -1.28334,0.66685 -2.43582,1.44491 -2.56108,1.72903 -0.12526,0.28411 -1.17526,0.97244 -2.33334,1.52962 -1.15807,0.55718 -3.60558,1.88757 -5.43892,2.95644 -1.83333,1.06887 -4.58449,2.55903 -6.1137,3.31148 -1.5292,0.75244 -2.8792,1.58959 -3,1.86032 -0.12079,0.27073 -1.86963,1.32748 -3.8863,2.34833 -2.01666,1.02086 -5.28318,2.74586 -7.25891,3.83334 -3.87664,2.13376 -8.27429,2.56444 -11.40775,1.11722 z"
       id="path1" />
  </g>
</svg>
